<svg width="137" height="50" viewBox="0 0 137 50" fill="none" xmlns="http://www.w3.org/2000/svg">
<path d="M21.7168 31.8654C21.7168 31.1266 21.1072 30.5277 20.3552 30.5277C19.6033 30.5277 18.9937 31.1266 18.9937 31.8654C18.9937 32.6042 19.6033 33.2031 20.3552 33.2031C21.1072 33.2031 21.7168 32.6042 21.7168 31.8654Z" fill="#035CA7"/>
<path d="M32.6187 31.8654C32.6187 31.1266 32.0091 30.5277 31.2571 30.5277C30.5051 30.5277 29.8955 31.1266 29.8955 31.8654C29.8955 32.6042 30.5051 33.2031 31.2571 33.2031C32.0091 33.2031 32.6187 32.6042 32.6187 31.8654Z" fill="#035CA7"/>
<path d="M25.806 18.4662L22.0972 29.1901H32.802C33.4768 29.1901 34.124 28.9267 34.6011 28.4579C35.0783 27.9892 35.3464 27.3533 35.3464 26.6904V18.4662H25.806Z" fill="#035CA7"/>
<path d="M16.2705 18.4662V26.6904C16.2693 27.3506 16.5344 27.9844 17.0079 28.4529C17.4814 28.9214 18.1246 29.1865 18.7966 29.1901H22.0974L25.8063 18.4662H16.2705ZM18.9983 20.9118H20.7954V21.727H18.9983V20.9118ZM20.7954 21.8126V22.7134H19.9335V21.8126H20.7954ZM19.8785 23.6142H18.9983V22.799H19.8648L19.8785 23.6142ZM19.8785 22.7359H18.9983V21.8351H19.8648L19.8785 22.7359ZM21.7398 23.6142H19.9335V22.799H21.7261L21.7398 23.6142ZM21.7398 22.7359H20.8642V21.8351H21.7261L21.7398 22.7359ZM20.8779 21.7541V20.9298H21.7398V21.7451L20.8779 21.7541Z" fill="#2674B2"/>
<path d="M35.3463 15.7998C35.3463 15.4414 35.2014 15.0978 34.9434 14.8444C34.6855 14.591 34.3357 14.4486 33.9709 14.4486H27.1996L26.2827 17.1239H35.3463V15.7998Z" fill="#7BC142"/>
<path d="M18.9937 14.4666V13.1155C18.9937 12.7571 18.8488 12.4134 18.5909 12.16C18.333 11.9066 17.9831 11.7643 17.6184 11.7643H12.1812V14.4396H16.2705V17.115H26.2739L27.1908 14.4396L18.9937 14.4666Z" fill="#91C848"/>
<path d="M57.7968 31.3204C57.7961 31.4454 57.7674 31.5687 57.7127 31.6816C57.658 31.7945 57.5787 31.8941 57.4804 31.9735C57.2786 32.1575 57.013 32.2589 56.7378 32.2572C56.4029 32.2035 56.0943 32.0456 55.8575 31.8069L46.4043 22.6909V31.3745C46.4118 31.4912 46.3902 31.608 46.3415 31.7147C46.2928 31.8214 46.2184 31.9149 46.1246 31.987C45.9343 32.1307 45.7 32.2069 45.4599 32.2032C45.2055 32.2078 44.9569 32.1286 44.7539 31.978C44.6604 31.9075 44.5856 31.8157 44.5361 31.7106C44.4866 31.6055 44.4638 31.4902 44.4696 31.3745V13.4082C44.4648 13.2964 44.4898 13.1852 44.542 13.0857C44.5943 12.9861 44.672 12.9017 44.7676 12.8407C44.9713 12.7 45.2156 12.6274 45.4645 12.6336C45.7002 12.6303 45.9305 12.7031 46.1201 12.8407C46.213 12.9037 46.2883 12.9888 46.3387 13.088C46.3892 13.1872 46.4134 13.2974 46.4089 13.4082V20.8352L55.6421 12.7957C55.8241 12.6828 56.0366 12.6263 56.2518 12.6336C56.3736 12.6329 56.4942 12.656 56.6068 12.7016C56.7194 12.7473 56.8215 12.8145 56.9074 12.8993C56.9953 12.9765 57.066 13.0708 57.1149 13.1763C57.1638 13.2817 57.1899 13.396 57.1916 13.5118C57.1916 13.6866 57.1502 13.859 57.0706 14.0154C56.991 14.1717 56.8755 14.3077 56.7332 14.4126L48.1372 21.8621L57.4254 30.5593C57.5439 30.6485 57.6393 30.7639 57.7038 30.8962C57.7683 31.0285 57.8002 31.1738 57.7968 31.3204Z" fill="#035CA7"/>
<path d="M70.1106 27.384C70.1263 28.2348 69.9026 29.0733 69.4642 29.8071C69.0136 30.532 68.3481 31.1041 67.557 31.4466C66.6131 31.8541 65.5895 32.0525 64.5588 32.0276C63.7818 32.0428 63.0075 31.9333 62.2665 31.7033C61.6356 31.5008 61.0547 31.1709 60.5611 30.7349C60.0924 30.3241 59.7268 29.8124 59.4929 29.2396C59.259 28.6482 59.1423 28.0184 59.1491 27.384V18.2635C59.1392 18.1297 59.1577 17.9954 59.2035 17.869C59.2493 17.7426 59.3213 17.627 59.415 17.5294C59.5036 17.4453 59.6085 17.3797 59.7235 17.3363C59.8385 17.293 59.9612 17.2729 60.0843 17.2772C60.2089 17.2716 60.3334 17.2912 60.45 17.3345C60.5667 17.3779 60.6731 17.4442 60.7628 17.5294C60.858 17.6261 60.9313 17.7415 60.9779 17.868C61.0245 17.9946 61.0434 18.1293 61.0333 18.2635V26.7309C61.0186 27.3825 61.1583 28.0286 61.4413 28.6181C61.7057 29.149 62.1277 29.5887 62.6516 29.8792C63.2295 30.191 63.8813 30.3464 64.5404 30.3296C65.0293 30.3577 65.5187 30.2844 65.9768 30.1145C66.4349 29.9445 66.8515 29.6818 67.1994 29.3432C67.8538 28.6275 68.1947 27.6874 68.1484 26.7264V18.2635C68.1408 18.1287 68.1626 17.9938 68.2124 17.868C68.2622 17.7421 68.3389 17.6282 68.4373 17.5339C68.6161 17.3661 68.8548 17.2739 69.102 17.2772C69.3622 17.2705 69.615 17.3624 69.808 17.5339C69.9049 17.6291 69.9802 17.7433 70.0292 17.869C70.0781 17.9947 70.0996 18.1291 70.0923 18.2635L70.1106 27.384Z" fill="#035CA7"/>
<path d="M82.5439 27.8029C82.5471 28.389 82.4265 28.9694 82.1898 29.5074C81.9531 30.0454 81.6053 30.5293 81.1685 30.9286C80.2516 31.8114 78.8381 32.2618 76.9279 32.2798C76.0845 32.2965 75.2467 32.1432 74.466 31.8294C73.6545 31.4634 72.906 30.9757 72.2471 30.3836C72.094 30.2891 71.9646 30.1618 71.8685 30.0113C71.7725 29.8608 71.7123 29.6909 71.6924 29.5144C71.6994 29.3331 71.7565 29.1572 71.8574 29.0054C71.9555 28.829 72.0994 28.6814 72.2746 28.5775C72.4107 28.4871 72.569 28.4342 72.7331 28.4244C72.8738 28.4145 73.0151 28.433 73.1484 28.4787C73.2816 28.5244 73.4039 28.5963 73.5078 28.6901C73.984 29.1685 74.5183 29.5875 75.0987 29.9377C75.6502 30.2449 76.2757 30.4005 76.9095 30.3881C77.4742 30.394 78.0361 30.3103 78.5737 30.1404C79.0448 30.0012 79.4681 29.7379 79.7978 29.3792C80.1065 29.0358 80.2705 28.5897 80.2562 28.1316C80.2562 27.5041 79.8895 26.9636 79.1559 26.5102C78.1834 25.9272 77.1619 25.427 76.1027 25.0149C75.3294 24.6876 74.6906 24.3874 74.1863 24.1141C73.6661 23.8352 73.2091 23.4551 72.8431 22.9971C72.4434 22.4976 72.2356 21.8757 72.2563 21.2406C72.2541 20.5555 72.4462 19.8833 72.811 19.2994C73.2001 18.6748 73.759 18.1694 74.4247 17.8401C75.2074 17.4464 76.0641 17.215 76.9416 17.16C77.8747 17.1597 78.7992 17.3356 79.6648 17.678C80.3405 17.9014 80.9639 18.2551 81.4986 18.7184C81.6725 18.8588 81.8119 19.0358 81.9066 19.2364C82.0048 19.4151 82.0582 19.6143 82.0625 19.8174C82.0584 19.9323 82.0283 20.0448 81.9743 20.1469C81.9204 20.2489 81.844 20.3379 81.7508 20.4074C81.5591 20.5757 81.311 20.6687 81.0539 20.6686C80.9394 20.6666 80.8264 20.642 80.7217 20.5964C80.6169 20.5508 80.5226 20.4849 80.4442 20.4029C80.1707 20.1606 79.8616 19.9602 79.5273 19.8084C79.1397 19.6117 78.7346 19.4504 78.317 19.3264C77.9394 19.2126 77.5474 19.1519 77.1525 19.1463C76.4393 19.118 75.7319 19.2832 75.1078 19.6237C74.8532 19.7687 74.6443 19.98 74.5043 20.2344C74.3643 20.4888 74.2987 20.7762 74.3147 21.065C74.3147 21.5454 74.7961 22.0108 75.7588 22.4612C76.7216 22.9116 77.7057 23.362 78.7112 23.8124C79.7137 24.2534 80.6487 24.8294 81.4894 25.5239C81.8258 25.8035 82.0948 26.153 82.2771 26.5471C82.4595 26.9411 82.5506 27.37 82.5439 27.8029Z" fill="#035CA7"/>
<path d="M95.1423 31.1628C95.1511 31.2968 95.1294 31.431 95.0786 31.5557C95.0278 31.6804 94.9494 31.7924 94.8489 31.8834C94.654 32.0484 94.4047 32.138 94.1474 32.1356C93.9045 32.135 93.6706 32.045 93.4918 31.8834C93.3922 31.792 93.3145 31.6798 93.2646 31.5551C93.2146 31.4305 93.1936 31.2964 93.203 31.1628V22.3035C93.2242 21.8914 93.1531 21.4798 92.9946 21.0977C92.8362 20.7156 92.5944 20.3723 92.2861 20.0921C91.6618 19.5511 90.8584 19.2518 90.026 19.2498H89.8563C89.2026 19.2574 88.5623 19.4331 87.9993 19.7595C87.4362 20.0858 86.97 20.5515 86.6472 21.11C86.2534 21.7958 86.0599 22.575 86.0879 23.3619V31.1628C86.0984 31.2901 86.0813 31.4181 86.0376 31.5384C85.9939 31.6587 85.9246 31.7685 85.8345 31.8605C85.7443 31.9525 85.6352 32.0246 85.5145 32.0721C85.3938 32.1195 85.2642 32.1412 85.1343 32.1356C85.0115 32.1405 84.889 32.1211 84.774 32.0785C84.6591 32.036 84.554 31.9712 84.465 31.8879C84.3711 31.7923 84.2988 31.6783 84.253 31.5533C84.2072 31.4283 84.1888 31.2952 84.1991 31.1628V18.0473C84.1889 17.9197 84.2066 17.7914 84.2508 17.671C84.2951 17.5507 84.365 17.4409 84.4558 17.3492C84.6424 17.1875 84.8858 17.1035 85.1343 17.115C85.3858 17.1026 85.6323 17.1865 85.822 17.3492C85.9144 17.4402 85.986 17.5495 86.0319 17.6699C86.0777 17.7904 86.0968 17.919 86.0879 18.0473V19.3669C86.517 18.6769 87.1265 18.1123 87.8529 17.732C88.559 17.3651 89.3464 17.1748 90.1452 17.178C90.9929 17.1781 91.8276 17.3839 92.5749 17.777C93.343 18.1693 93.988 18.7593 94.4408 19.484C94.9241 20.2695 95.1691 21.1743 95.1468 22.0918L95.1423 31.1628Z" fill="#035CA7"/>
<path d="M109.409 31.3745C109.417 31.5016 109.399 31.6289 109.355 31.7487C109.311 31.8684 109.242 31.9779 109.153 32.0704C109.064 32.163 108.957 32.2365 108.837 32.2865C108.718 32.3364 108.59 32.3618 108.46 32.3609C108.337 32.3652 108.214 32.3451 108.099 32.3017C107.984 32.2584 107.879 32.1927 107.791 32.1087C107.698 32.0108 107.626 31.8951 107.58 31.7688C107.535 31.6425 107.516 31.5083 107.525 31.3745V30.3341C106.981 30.932 106.31 31.4042 105.558 31.7168C104.704 32.0839 103.781 32.2681 102.849 32.2573C101.867 32.2295 100.913 31.928 100.098 31.388C99.1584 30.7645 98.4164 29.8935 97.9572 28.8748C97.3792 27.6009 97.1003 26.2155 97.1411 24.8213C97.1225 23.6881 97.3167 22.5613 97.7142 21.4974C98.0482 20.6007 98.561 19.7784 99.2225 19.0788C99.7827 18.4803 100.453 17.9913 101.198 17.6375C101.824 17.3375 102.51 17.1761 103.206 17.1646C104.074 17.1726 104.921 17.4259 105.645 17.8942C106.403 18.3666 107.032 19.0127 107.479 19.7769V18.0429C107.47 17.916 107.488 17.7886 107.532 17.669C107.576 17.5495 107.646 17.4405 107.736 17.3493C107.923 17.1876 108.166 17.1036 108.414 17.115C108.661 17.1092 108.901 17.1926 109.088 17.3493C109.184 17.4383 109.258 17.5472 109.306 17.6679C109.353 17.7886 109.373 17.9182 109.363 18.0474L109.409 31.3745ZM107.525 24.8168C107.549 23.7764 107.381 22.7404 107.03 21.7586C106.75 20.983 106.241 20.3071 105.567 19.8174C104.882 19.3542 104.065 19.1176 103.234 19.1418C102.436 19.1206 101.659 19.3974 101.061 19.9165C100.442 20.4818 99.9836 21.1959 99.7314 21.9883C99.421 22.9046 99.2661 23.8647 99.2729 24.8303C99.2667 25.8077 99.4216 26.7795 99.7314 27.7083C99.9813 28.5089 100.445 29.229 101.075 29.7937C101.672 30.3125 102.446 30.5908 103.243 30.5728C103.933 30.592 104.614 30.4169 105.205 30.0684C105.756 29.7277 106.217 29.2649 106.553 28.7172C106.909 28.1477 107.165 27.5235 107.31 26.8706C107.457 26.1957 107.529 25.507 107.525 24.8168Z" fill="#035CA7"/>
<path d="M124.24 24.6006C124.254 25.6956 124.12 26.7876 123.841 27.8479C123.613 28.7205 123.208 29.5387 122.649 30.253C122.131 30.8992 121.459 31.4098 120.692 31.7393C119.845 32.0977 118.931 32.2743 118.01 32.2573C116.451 32.2573 115.076 31.5456 113.884 30.1224V36.8783C113.892 37.0054 113.871 37.1328 113.822 37.2506C113.772 37.3685 113.696 37.4737 113.599 37.5584C113.418 37.7169 113.182 37.8022 112.939 37.7971C112.684 37.8021 112.435 37.7175 112.238 37.5584C112.139 37.4751 112.061 37.3703 112.01 37.2523C111.959 37.1343 111.936 37.0062 111.944 36.8783V18.2635C111.937 18.1287 111.959 17.9938 112.008 17.868C112.058 17.7421 112.135 17.6282 112.233 17.5339C112.427 17.3628 112.679 17.2709 112.939 17.2772C113.185 17.2746 113.422 17.3668 113.599 17.5339C113.697 17.6286 113.773 17.7427 113.822 17.8685C113.871 17.9944 113.892 18.129 113.884 18.2635V19.5697C114.388 18.9248 115.009 18.378 115.717 17.9572C116.41 17.5747 117.193 17.3803 117.987 17.3943C119.185 17.3638 120.362 17.7093 121.347 18.3806C122.291 19.056 123.03 19.9717 123.484 21.0289C123.986 22.155 124.243 23.3713 124.24 24.6006ZM122.067 24.6006C122.132 23.1906 121.703 21.8013 120.852 20.6641C120.535 20.2073 120.112 19.8311 119.618 19.5664C119.124 19.3018 118.572 19.1562 118.01 19.1418C117.245 19.1366 116.501 19.3841 115.896 19.8444C115.235 20.3531 114.726 21.0287 114.425 21.7991C114.059 22.6888 113.879 23.6413 113.893 24.6006C113.889 25.551 114.03 26.4967 114.31 27.4065C114.556 28.2551 115.014 29.0295 115.644 29.6585C115.955 29.9587 116.326 30.1934 116.732 30.3483C117.139 30.5032 117.574 30.575 118.01 30.5593C118.61 30.5682 119.202 30.4193 119.725 30.1279C120.247 29.8364 120.681 29.4132 120.981 28.9018C121.754 27.6 122.13 26.1067 122.062 24.6006H122.067Z" fill="#035CA7"/>
</svg>
