<svg width="32" height="32" viewBox="0 0 32 32" fill="none" xmlns="http://www.w3.org/2000/svg">
<mask id="mask0" mask-type="alpha" maskUnits="userSpaceOnUse" x="5" y="6" width="23" height="20">
<path d="M13 6C11.9391 6 10.9217 6.42143 10.1716 7.17157C9.42143 7.92172 9 8.93913 9 10C9 11.0609 9.42143 12.0783 10.1716 12.8284C10.9217 13.5786 11.9391 14 13 14C14.0609 14 15.0783 13.5786 15.8284 12.8284C16.5786 12.0783 17 11.0609 17 10C17 8.93913 16.5786 7.92172 15.8284 7.17157C15.0783 6.42143 14.0609 6 13 6ZM13 16C10.33 16 5 17.33 5 20V22H16.08C16.03 21.67 16 21.34 16 21C16 19.5 16.5 18 17.41 16.8C15.88 16.28 14.18 16 13 16ZM22 16C21.87 16 21.76 16.09 21.74 16.21L21.55 17.53C21.25 17.66 20.96 17.82 20.7 18L19.46 17.5C19.35 17.5 19.22 17.5 19.15 17.63L18.15 19.36C18.09 19.47 18.11 19.6 18.21 19.68L19.27 20.5C19.25 20.67 19.24 20.83 19.24 21C19.24 21.17 19.25 21.33 19.27 21.5L18.21 22.32C18.12 22.4 18.09 22.53 18.15 22.64L19.15 24.37C19.21 24.5 19.34 24.5 19.46 24.5L20.7 24C20.96 24.18 21.24 24.35 21.55 24.47L21.74 25.79C21.76 25.91 21.86 26 22 26H24C24.11 26 24.22 25.91 24.24 25.79L24.43 24.47C24.73 24.34 25 24.18 25.27 24L26.5 24.5C26.63 24.5 26.76 24.5 26.83 24.37L27.83 22.64C27.89 22.53 27.86 22.4 27.77 22.32L26.7 21.5C26.72 21.33 26.74 21.17 26.74 21C26.74 20.83 26.73 20.67 26.7 20.5L27.76 19.68C27.85 19.6 27.88 19.47 27.82 19.36L26.82 17.63C26.76 17.5 26.63 17.5 26.5 17.5L25.27 18C25 17.82 24.73 17.65 24.42 17.53L24.23 16.21C24.22 16.09 24.11 16 24 16H22ZM23 19.5C23.3978 19.5 23.7794 19.658 24.0607 19.9393C24.342 20.2206 24.5 20.6022 24.5 21C24.5 21.3978 24.342 21.7794 24.0607 22.0607C23.7794 22.342 23.3978 22.5 23 22.5C22.16 22.5 21.5 21.83 21.5 21C21.5 20.6022 21.658 20.2206 21.9393 19.9393C22.2206 19.658 22.6022 19.5 23 19.5Z" fill="#9E9E9E"/>
</mask>
<g mask="url(#mask0)">
<rect width="32" height="32" fill="#09639B"/>
</g>
</svg>
